<svg width="50" height="50" viewBox="0 0 50 50" fill="none" xmlns="http://www.w3.org/2000/svg">
  <!-- Cloud Shape -->
  <path d="M39.5 22.5C39.5 17.8056 35.6944 14 31 14C29.1667 14 27.4722 14.6667 26.1389 15.8333C24.1389 11.8333 19.8056 9 15 9C8.94444 9 4 13.9444 4 20C4 20.6667 4.05556 21.3333 4.16667 22C1.77778 23.3333 0 25.7222 0 28.5C0 32.6389 3.36111 36 7.5 36H38.5C43.1944 36 47 32.1944 47 27.5C47 24.7222 45.2222 22.3333 42.8333 21C42.1667 21.9444 41.2222 22.7222 40.0556 23.1667C39.6667 22.7778 39.5 22.5 39.5 22.5Z" fill="#4b32c3"/>
  <!-- Checkmark -->
  <path d="M20 28.5L25 33.5L32 23.5" stroke="#ffffff" stroke-width="4" stroke-linecap="round" stroke-linejoin="round"/>
</svg>